# xmcd
#
# Track frame offsets:
#	151
#	10664
#	21412
#	36203
#	44654
#	60283
#	78740
#	91783
#	102250
#	112492
#	128677
#
# Disc length: 1901 seconds
#
# Revision: 1
# Processed by: cddbd v1.5.1PL2 Copyright (c) Steve Scherf et al.
# Submitted via: EasyCDDAExtractor 8.2.3.1
#
DISCID=8c076b0b
DTITLE=Prairie Flyer - On The Right Track
DYEAR=1900
DGENRE=Bluegrass
TTITLE0=When I Get Home
TTITLE1=I Can't Feel At Home
TTITLE2=By The Mark
TTITLE3=Take Your Shoes Off Moses
TTITLE4=Working On A Building
TTITLE5=Come To Jesus
TTITLE6=Wicked Path of Sin
TTITLE7=House of Gold
TTITLE8=I Was There When it Happened
TTITLE9=Pilgrim
TTITLE10=Traveling The Highway Home
EXTD=
EXTT0=
EXTT1=
EXTT2=
EXTT3=
EXTT4=
EXTT5=
EXTT6=
EXTT7=
EXTT8=
EXTT9=
EXTT10=
PLAYORDER=
